<?xml version="1.0" encoding="UTF-8" standalone="no"?>
<!DOCTYPE svg PUBLIC "-//W3C//DTD SVG 1.1//EN" "http://www.w3.org/Graphics/SVG/1.1/DTD/svg11.dtd">
<svg width="100%" height="100%" viewBox="0 0 50 50" version="1.1" xmlns="http://www.w3.org/2000/svg" xmlns:xlink="http://www.w3.org/1999/xlink" xml:space="preserve" xmlns:serif="http://www.serif.com/" style="fill-rule:evenodd;clip-rule:evenodd;stroke-linejoin:round;stroke-miterlimit:2;">
    <g transform="matrix(0.113485,0,0,0.117237,-7.74915,-5.88186)">
        <ellipse cx="286.119" cy="262.638" rx="216.757" ry="210.27" style="fill:rgb(254,161,28);"/>
    </g>
    <g transform="matrix(0.0747681,0,0,0.0727061,6.75676,7.39021)">
        <path d="M256,0C114.836,0 0,114.836 0,256C0,397.164 114.836,512 256,512C397.164,512 512,397.164 512,256C512,114.836 397.164,0 256,0Z" style="fill:rgb(254,161,28);fill-rule:nonzero;"/>
    </g>
    <g transform="matrix(0.0976563,0,0,0.0976563,-1.06208,-1.39569)">
        <g transform="matrix(1,0,0,1,-10.8699,-10.0693)">
            <g transform="matrix(0.597742,0,0,0.539105,121.162,147.171)">
                <path d="M277.332,384C277.332,395.781 267.781,405.332 256,405.332C244.219,405.332 234.668,395.781 234.668,384C234.668,372.219 244.219,362.668 256,362.668C267.781,362.668 277.332,372.219 277.332,384Z" style="fill:white;fill-rule:nonzero;"/>
            </g>
            <g transform="matrix(0.597742,0,0,0.539105,121.162,147.171)">
                <path d="M256,314.668C247.168,314.668 240,307.5 240,298.668L240,277.121C240,256.813 252.887,238.594 272.043,231.852C297.535,222.871 314.668,195.734 314.668,176C314.668,143.637 288.363,117.332 256,117.332C223.637,117.332 197.332,143.637 197.332,176C197.332,184.832 190.164,192 181.332,192C172.5,192 165.332,184.832 165.332,176C165.332,125.996 205.996,85.332 256,85.332C306.004,85.332 346.668,125.996 346.668,176C346.668,211.605 318.57,249.387 282.688,262.016C276.289,264.277 272,270.355 272,277.121L272,298.668C272,307.5 264.832,314.668 256,314.668Z" style="fill:white;fill-rule:nonzero;"/>
            </g>
        </g>
        <g transform="matrix(0.718328,0,0,0.712078,79.422,88)">
            <path d="M256,512C114.836,512 0,397.164 0,256C0,114.836 114.836,0 256,0C397.164,0 512,114.836 512,256C512,397.164 397.164,512 256,512ZM256,32C132.48,32 32,132.48 32,256C32,379.52 132.48,480 256,480C379.52,480 480,379.52 480,256C480,132.48 379.52,32 256,32Z" style="fill:white;fill-rule:nonzero;"/>
        </g>
    </g>
</svg>
