<?xml version="1.0" encoding="UTF-8" standalone="no"?>
<!DOCTYPE svg PUBLIC "-//W3C//DTD SVG 1.1//EN" "http://www.w3.org/Graphics/SVG/1.1/DTD/svg11.dtd">
<svg width="100%" height="100%" viewBox="0 0 457 55" version="1.1" xmlns="http://www.w3.org/2000/svg" xmlns:xlink="http://www.w3.org/1999/xlink" xml:space="preserve" xmlns:serif="http://www.serif.com/" style="fill-rule:evenodd;clip-rule:evenodd;stroke-linejoin:round;stroke-miterlimit:2;">
    <g transform="matrix(1,0,0,1,-7.02,-4.46)">
        <path d="M7,4.46L8.58,6.69C9.38,7.85 10.38,9.27 11.58,10.95C12.78,12.63 14.113,14.49 15.58,16.53L20.13,22.74C21.66,24.85 23.13,26.9 24.64,28.92C26.15,30.94 27.43,32.76 28.64,34.42C29.85,36.08 30.83,37.42 31.64,38.57C32.45,39.72 32.98,40.38 33.17,40.67C33.26,40.52 33.69,39.92 34.44,38.86L37.32,34.86C38.48,33.26 39.79,31.42 41.26,29.36C42.73,27.3 44.26,25.21 45.8,23.08C47.34,20.95 48.89,18.84 50.38,16.76C51.87,14.68 53.25,12.76 54.5,11.08C55.75,9.4 56.81,7.93 57.66,6.75L59.29,4.48L59.29,58.48L50,58.48L50,32.07C50.005,31.666 50.052,31.264 50.14,30.87C50.209,30.614 50.259,30.353 50.29,30.09L33.22,54.72C32.98,54.44 32.4,53.66 31.48,52.38L28.17,47.84C26.9,46.09 25.55,44.2 24.17,42.19C22.79,40.18 21.41,38.31 20.17,36.58C18.93,34.85 17.85,33.39 16.97,32.18C16.09,30.97 15.61,30.28 15.52,30.09C15.545,30.353 15.592,30.614 15.66,30.87C15.748,31.264 15.795,31.666 15.8,32.07L15.8,58.49L7,58.49L7,4.46Z" style="fill:rgb(88,84,83);fill-rule:nonzero;"/>
    </g>
    <g transform="matrix(1,0,0,1,-7.02,-4.46)">
        <path d="M119.83,58.49L119.83,6.73L134,6.73C136.354,6.705 138.703,6.953 141,7.47C142.914,7.894 144.726,8.693 146.33,9.82C147.773,10.902 148.907,12.343 149.62,14C150.447,15.963 150.845,18.08 150.79,20.21C150.792,21.51 150.661,22.807 150.4,24.08C150.15,25.298 149.719,26.471 149.12,27.56C148.527,28.626 147.744,29.575 146.81,30.36C145.769,31.218 144.56,31.849 143.26,32.21C144.501,32.463 145.706,32.866 146.85,33.41C149.391,34.599 151.377,36.724 152.39,39.34C153.013,40.96 153.315,42.685 153.28,44.42C153.344,46.649 152.842,48.858 151.82,50.84C150.898,52.572 149.591,54.071 148,55.22C146.339,56.394 144.469,57.239 142.49,57.71C140.377,58.234 138.207,58.496 136.03,58.49L119.83,58.49ZM128.5,14.61L128.5,28.67L135,28.67C137.019,28.832 139.003,28.044 140.36,26.54C141.527,25.097 142.144,23.285 142.1,21.43C142.262,19.478 141.481,17.562 140,16.28C138.327,15.091 136.3,14.502 134.25,14.61L128.5,14.61ZM128.5,36.05L128.5,50.61L135.31,50.61C136.532,50.616 137.75,50.458 138.93,50.14C140,49.871 141.015,49.418 141.93,48.8C142.777,48.22 143.465,47.435 143.93,46.52C144.425,45.517 144.669,44.408 144.64,43.29C144.684,42.086 144.39,40.894 143.79,39.85C143.226,38.931 142.447,38.162 141.52,37.61C140.521,37.026 139.428,36.62 138.29,36.41C137.061,36.168 135.812,36.047 134.56,36.05L128.5,36.05Z" style="fill:rgb(88,84,83);fill-rule:nonzero;"/>
    </g>
    <g transform="matrix(1,0,0,1,-7.02,-4.46)">
        <rect x="162.08" y="6.73" width="8.73" height="51.76" style="fill:rgb(88,84,83);fill-rule:nonzero;"/>
    </g>
    <g transform="matrix(1,0,0,1,-7.02,-4.46)">
        <path d="M182.74,58.49L182.74,6.73L191.4,6.73L191.4,50.25L216.53,50.25L216.53,58.49L182.74,58.49Z" style="fill:rgb(88,84,83);fill-rule:nonzero;"/>
    </g>
    <g transform="matrix(1,0,0,1,-7.02,-4.46)">
        <rect x="223.56" y="6.73" width="8.74" height="51.76" style="fill:rgb(88,84,83);fill-rule:nonzero;"/>
    </g>
    <g transform="matrix(1,0,0,1,-7.02,-4.46)">
        <path d="M274.75,9.64L271.63,16.74C269.705,16.038 267.738,15.457 265.74,15C263.967,14.599 262.157,14.388 260.34,14.37C257.938,14.237 255.551,14.83 253.49,16.07C251.951,16.982 251.004,18.642 251,20.43C250.974,21.895 251.68,23.28 252.88,24.12C254.333,25.178 255.921,26.039 257.6,26.68C259.5,27.44 261.54,28.21 263.74,28.99C265.898,29.744 267.959,30.751 269.88,31.99C271.761,33.213 273.371,34.809 274.61,36.68C275.938,38.854 276.593,41.374 276.49,43.92C276.516,46.044 276.094,48.15 275.25,50.1C274.402,51.96 273.123,53.592 271.52,54.86C269.641,56.313 267.493,57.381 265.2,58C262.297,58.785 259.297,59.155 256.29,59.1C254.388,59.113 252.489,58.973 250.61,58.68C249.049,58.414 247.509,58.04 246,57.56C243.794,56.886 241.683,55.931 239.72,54.72L243.48,47.13C245.498,48.231 247.644,49.077 249.87,49.65C252.896,50.564 256.092,50.77 259.21,50.25C260.562,50.061 261.885,49.705 263.15,49.19C264.379,48.703 265.5,47.979 266.45,47.06C267.383,46.148 267.888,44.883 267.84,43.58C267.884,42.008 267.205,40.5 266,39.49C264.567,38.322 262.975,37.365 261.27,36.65C259.383,35.83 257.337,35.013 255.13,34.2C253.004,33.431 250.952,32.471 249,31.33C247.174,30.276 245.571,28.876 244.28,27.21C242.967,25.413 242.298,23.224 242.38,21C242.382,19.184 242.742,17.386 243.44,15.71C244.174,13.948 245.275,12.363 246.67,11.06C248.24,9.612 250.073,8.478 252.07,7.72C254.51,6.818 257.099,6.384 259.7,6.44C261.497,6.437 263.291,6.595 265.06,6.91C266.79,7.21 268.34,7.56 269.71,7.91C270.867,8.207 272.005,8.571 273.12,9C274,9.39 274.56,9.59 274.75,9.64Z" style="fill:rgb(88,84,83);fill-rule:nonzero;"/>
    </g>
    <g transform="matrix(1,0,0,1,-7.02,-4.46)">
        <path d="M323.74,54.65C322.976,55.144 322.185,55.595 321.37,56C320.201,56.582 318.987,57.07 317.74,57.46C316.189,57.949 314.605,58.327 313,58.59C311.147,58.907 309.27,59.061 307.39,59.05C303.651,59.126 299.936,58.428 296.48,57C293.399,55.7 290.618,53.78 288.31,51.36C286.066,48.942 284.328,46.1 283.2,43C282.015,39.8 281.416,36.412 281.43,33C281.393,29.305 282.118,25.642 283.56,22.24C284.913,19.048 286.881,16.153 289.35,13.72C291.792,11.321 294.684,9.428 297.86,8.15C301.165,6.807 304.702,6.127 308.27,6.15C309.706,6.153 311.14,6.26 312.56,6.47C313.934,6.668 315.296,6.942 316.64,7.29C317.788,7.583 318.911,7.964 320,8.43C320.78,8.736 321.491,9.195 322.09,9.78C321.66,10.44 321.33,10.99 321.09,11.41L320.34,12.73C320.08,13.18 319.8,13.73 319.49,14.25C319.18,14.77 318.74,15.6 318.18,16.6C317.536,16.186 316.844,15.85 316.12,15.6C315.298,15.313 314.456,15.09 313.6,14.93C312.72,14.763 311.83,14.633 310.93,14.54C310.13,14.449 309.325,14.402 308.52,14.4C305.992,14.372 303.487,14.88 301.17,15.89C298.999,16.825 297.024,18.162 295.35,19.83C293.716,21.467 292.415,23.407 291.52,25.54C290.601,27.671 290.128,29.969 290.13,32.29C290.133,34.567 290.578,36.822 291.44,38.93C292.299,41.051 293.555,42.989 295.14,44.64C296.75,46.318 298.664,47.676 300.78,48.64C303.05,49.68 305.523,50.202 308.02,50.17C309.502,50.176 310.981,50.021 312.43,49.71C313.702,49.452 314.958,49.118 316.19,48.71C317.106,48.404 317.996,48.022 318.85,47.57C319.54,47.19 319.9,46.93 319.95,46.79L323.74,54.65Z" style="fill:rgb(88,84,83);fill-rule:nonzero;"/>
    </g>
    <g transform="matrix(1,0,0,1,-7.02,-4.46)">
        <path d="M325.38,32.71C325.366,29.196 326.077,25.716 327.47,22.49C330.176,16.141 335.208,11.059 341.53,8.29C348.058,5.451 355.482,5.451 362.01,8.29C365.157,9.651 368.023,11.588 370.46,14C372.886,16.427 374.828,19.295 376.18,22.45C378.966,28.989 378.966,36.391 376.18,42.93C374.827,46.064 372.885,48.909 370.46,51.31C368.028,53.728 365.156,55.659 362,57C355.45,59.732 348.07,59.732 341.52,57C338.393,55.667 335.549,53.749 333.14,51.35C330.743,48.947 328.819,46.114 327.47,43C326.065,39.753 325.353,36.248 325.38,32.71ZM334.11,32.71C334.092,35.136 334.565,37.541 335.5,39.78C336.387,41.929 337.688,43.883 339.33,45.53C340.963,47.161 342.886,48.473 345,49.4C347.207,50.361 349.593,50.845 352,50.82C354.358,50.834 356.692,50.35 358.85,49.4C360.954,48.488 362.86,47.174 364.46,45.53C366.067,43.867 367.346,41.917 368.23,39.78C369.158,37.539 369.627,35.135 369.61,32.71C369.627,30.284 369.144,27.881 368.19,25.65C367.278,23.502 365.98,21.54 364.36,19.86C362.747,18.207 360.828,16.882 358.71,15.96C354.293,14.067 349.287,14.067 344.87,15.96C342.76,16.875 340.853,18.201 339.26,19.86C337.659,21.54 336.384,23.504 335.5,25.65C334.566,27.886 334.093,30.287 334.11,32.71Z" style="fill:rgb(88,84,83);fill-rule:nonzero;"/>
    </g>
    <g transform="matrix(1,0,0,1,-7.02,-4.46)">
        <path d="M386.79,58.49L386.79,6.73L401.42,6.73C404.053,6.701 406.674,7.082 409.19,7.86C411.391,8.531 413.433,9.644 415.19,11.13C416.837,12.571 418.136,14.366 418.99,16.38C419.905,18.599 420.361,20.98 420.33,23.38C420.331,25.487 420.021,27.583 419.41,29.6C418.812,31.635 417.79,33.52 416.41,35.13C414.919,36.85 413.064,38.216 410.98,39.13C408.378,40.224 405.571,40.745 402.75,40.66L395.5,40.66L395.5,58.49L386.79,58.49ZM395.45,32.49L402.45,32.49C403.995,32.542 405.531,32.227 406.93,31.57C409.04,30.514 410.613,28.619 411.26,26.35C411.52,25.463 411.661,24.545 411.68,23.62C411.66,22.717 411.529,21.821 411.29,20.95C411.015,19.907 410.532,18.931 409.87,18.08C409.117,17.125 408.16,16.35 407.07,15.81C405.65,15.14 404.089,14.821 402.52,14.88L395.52,14.88L395.45,32.49Z" style="fill:rgb(88,84,83);fill-rule:nonzero;"/>
    </g>
    <g transform="matrix(1,0,0,1,-7.02,-4.46)">
        <path d="M428.18,58.49L428.18,6.73L462.55,6.73L462.55,14.61L436.85,14.61L436.85,28.53L459.71,28.53L459.71,36.62L436.85,36.62L436.85,50.39L463.54,50.39L463.54,58.49L428.18,58.49Z" style="fill:rgb(88,84,83);fill-rule:nonzero;"/>
    </g>
    <g transform="matrix(1,0,0,1,-7.02,-4.46)">
        <path d="M108,14.09C112.856,18.962 115.585,25.566 115.585,32.445C115.585,46.708 103.848,58.445 89.585,58.445C75.322,58.445 63.585,46.708 63.585,32.445C63.585,25.566 66.314,18.962 71.17,14.09C76.046,9.197 82.677,6.445 89.585,6.445C96.493,6.445 103.124,9.197 108,14.09ZM72.38,49.7C76.937,54.257 83.125,56.82 89.57,56.82C102.906,56.82 113.88,45.846 113.88,32.51C113.88,19.174 102.906,8.2 89.57,8.2C83.125,8.2 76.937,10.763 72.38,15.32C67.823,19.877 65.26,26.065 65.26,32.51C65.26,38.955 67.823,45.143 72.38,49.7Z" style="fill:rgb(88,85,83);fill-rule:nonzero;stroke:rgb(88,84,83);stroke-width:0.8px;"/>
    </g>
    <g transform="matrix(1,0,0,1,-7.02,-4.46)">
        <path d="M87.22,35.49C87.652,36.391 88.566,36.966 89.565,36.966C90.992,36.966 92.166,35.792 92.166,34.365C92.166,33.976 92.078,33.591 91.91,33.24L96.32,28.83C96.448,28.674 96.518,28.479 96.518,28.278C96.518,27.8 96.125,27.408 95.648,27.408C95.444,27.408 95.246,27.479 95.09,27.61L90.68,32C89.976,31.661 89.154,31.661 88.45,32L81.58,25.13C81.419,24.968 81.199,24.876 80.97,24.876C80.741,24.876 80.521,24.968 80.36,25.13C80.023,25.467 80.023,26.023 80.36,26.36L87.22,33.22C86.874,33.937 86.874,34.773 87.22,35.49ZM89,35C88.663,34.663 88.663,34.107 89,33.77C89.342,33.443 89.888,33.443 90.23,33.77C90.384,33.932 90.47,34.147 90.47,34.37C90.47,34.847 90.077,35.24 89.6,35.24C89.377,35.24 89.162,35.154 89,35Z" style="fill:rgb(88,85,83);fill-rule:nonzero;"/>
    </g>
</svg>
