<?xml version="1.0" encoding="UTF-8" standalone="no"?>
<!DOCTYPE svg PUBLIC "-//W3C//DTD SVG 1.1//EN" "http://www.w3.org/Graphics/SVG/1.1/DTD/svg11.dtd">
<svg width="100%" height="100%" viewBox="0 0 24 24" version="1.1" xmlns="http://www.w3.org/2000/svg" xmlns:xlink="http://www.w3.org/1999/xlink" xml:space="preserve" xmlns:serif="http://www.serif.com/" style="fill-rule:evenodd;clip-rule:evenodd;stroke-linejoin:round;stroke-miterlimit:2;">
    <g transform="matrix(1,0,0,1,0,-0.162162)">
        <rect x="-0.081" y="0.065" width="24.454" height="24.265" style="fill:rgb(226,148,36);"/>
    </g>
    <g transform="matrix(0.821983,0,0,0.788605,1.42919,2.72932)">
        <path d="M15.5,14L14.71,14L14.43,13.73C15.41,12.59 16,11.11 16,9.5C16,5.91 13.09,3 9.5,3C5.91,3 3,5.91 3,9.5C3,13.09 5.91,16 9.5,16C11.11,16 12.59,15.41 13.73,14.43L14,14.71L14,15.5L19,20.49L20.49,19L15.5,14ZM9.5,14C7.01,14 5,11.99 5,9.5C5,7.01 7.01,5 9.5,5C11.99,5 14,7.01 14,9.5C14,11.99 11.99,14 9.5,14Z" style="fill:white;fill-rule:nonzero;"/>
    </g>
    <rect x="0" y="0" width="24" height="24" style="fill:none;"/>
</svg>
