<?xml version="1.0" encoding="UTF-8" standalone="no"?>
<!DOCTYPE svg PUBLIC "-//W3C//DTD SVG 1.1//EN" "http://www.w3.org/Graphics/SVG/1.1/DTD/svg11.dtd">
<svg width="100%" height="100%" viewBox="0 0 30 30" version="1.1" xmlns="http://www.w3.org/2000/svg" xmlns:xlink="http://www.w3.org/1999/xlink" xml:space="preserve" xmlns:serif="http://www.serif.com/" style="fill-rule:evenodd;clip-rule:evenodd;stroke-miterlimit:10;">
    <g transform="matrix(0.0529101,0,0,0.0529101,0.716217,0)">
        <path d="M261.6,262L261.6,92.8C261.6,89.28 264.48,86.4 268,86.4C271.52,86.4 274.4,89.28 274.4,92.8L274.4,261.75L400.26,135.89C402.75,133.4 406.83,133.4 409.32,135.88C411.81,138.37 411.81,142.44 409.32,144.93L283.45,270.8L452.4,270.8C455.92,270.8 458.8,273.68 458.8,277.2C458.8,280.72 455.92,283.6 452.4,283.6L283.2,283.6L402.91,403.31C405.4,405.8 405.4,409.87 402.91,412.36C400.42,414.85 396.35,414.85 393.86,412.36L274.4,292.9L274.4,461.6C274.4,465.12 271.52,468 268,468C264.48,468 261.6,465.12 261.6,461.6L261.6,292.65L148.53,405.72C146.04,408.21 141.97,408.21 139.48,405.72C136.99,403.23 136.99,399.16 139.48,396.67L252.55,283.6L83.6,283.6C80.08,283.6 77.2,280.72 77.2,277.2C77.2,273.68 80.08,270.8 83.6,270.8L252.3,270.8L133.08,151.58C130.6,149.09 130.6,145.02 133.08,142.53C135.57,140.04 139.64,140.04 142.13,142.53L261.6,262Z" style="fill-rule:nonzero;stroke:rgb(129,108,83);stroke-width:25px;"/>
    </g>
</svg>
