<svg width="408" height="408" viewBox="0 0 408 408" fill="none" xmlns="http://www.w3.org/2000/svg">
<path d="M197.6 189V19.8C197.6 16.28 200.48 13.4 204 13.4C207.52 13.4 210.4 16.28 210.4 19.8V188.75L336.26 62.89C338.75 60.4 342.83 60.4 345.32 62.88C347.81 65.37 347.81 69.44 345.32 71.93L219.45 197.8H388.4C391.92 197.8 394.8 200.68 394.8 204.2C394.8 207.72 391.92 210.6 388.4 210.6H219.2L338.91 330.31C341.4 332.8 341.4 336.87 338.91 339.36C336.42 341.85 332.35 341.85 329.86 339.36L210.4 219.9V388.6C210.4 392.12 207.52 395 204 395C200.48 395 197.6 392.12 197.6 388.6V219.65L84.53 332.72C82.04 335.21 77.9699 335.21 75.4799 332.72C72.9899 330.23 72.9899 326.16 75.4799 323.67L188.55 210.6H19.6C16.08 210.6 13.2 207.72 13.2 204.2C13.2 200.68 16.08 197.8 19.6 197.8H188.3L69.08 78.58C66.6 76.09 66.6 72.02 69.08 69.53C71.57 67.04 75.64 67.04 78.13 69.53L197.6 189Z" fill="#FF0000" stroke="#00FF00" stroke-width="25"/>
</svg>
