<svg width="38" height="38" viewBox="0 0 38 38" fill="none" xmlns="http://www.w3.org/2000/svg">
<g filter="url(#filter0_d_111_44)">
<path d="M18.7592 29.5817C26.9105 29.5817 33.5184 22.9596 33.5184 14.7909C33.5184 6.62209 26.9105 0 18.7592 0C10.6079 0 4 6.62209 4 14.7909C4 22.9596 10.6079 29.5817 18.7592 29.5817Z" fill="#FEA11C"/>
<path d="M18.7749 25.3624C12.8334 25.3624 8 20.571 8 14.6812C8 8.79134 12.8334 4 18.7749 4C24.7165 4 29.5499 8.79134 29.5499 14.6812C29.5499 20.571 24.7165 25.3624 18.7749 25.3624ZM18.7749 5.33515C13.576 5.33515 9.34687 9.52751 9.34687 14.6812C9.34687 19.8348 13.576 24.0272 18.7749 24.0272C23.9738 24.0272 28.203 19.8348 28.203 14.6812C28.203 9.52751 23.9738 5.33515 18.7749 5.33515Z" fill="white"/>
<path d="M14.6833 16.0103C13.7722 16.9214 13.7722 18.4056 14.6833 19.3167C15.5944 20.2277 17.0786 20.2278 17.9897 19.3167L19.8266 17.4798C20.7377 16.5687 20.7377 15.0845 19.8266 14.1734V14.1733C19.7539 14.0986 19.6543 14.0561 19.55 14.0553C19.4457 14.0546 19.3455 14.0957 19.2717 14.1695C19.198 14.2432 19.1568 14.3435 19.1576 14.4477C19.1583 14.552 19.2008 14.6517 19.2755 14.7244C19.8909 15.3397 19.8909 16.3133 19.2755 16.9286L17.4386 18.7655C16.8233 19.3809 15.8497 19.3809 15.2344 18.7655C14.619 18.1502 14.619 17.1766 15.2344 16.5612L16.9794 14.8161L16.9795 14.8162C17.0543 14.7436 17.0968 14.6439 17.0976 14.5395C17.0983 14.4352 17.0572 14.3349 16.9834 14.2612C16.9097 14.1873 16.8094 14.1463 16.705 14.147C16.6007 14.1477 16.5011 14.1903 16.4283 14.2652L14.6833 16.0102L14.6833 16.0103ZM18.1734 12.5202C17.2623 13.4313 17.2623 14.9155 18.1734 15.8266C18.2461 15.9013 18.3457 15.9437 18.45 15.9445C18.5543 15.9452 18.6545 15.904 18.7283 15.8303C18.8019 15.7566 18.843 15.6564 18.8423 15.5521C18.8416 15.4479 18.7992 15.3482 18.7245 15.2755C18.1091 14.6602 18.1091 13.6866 18.7245 13.0712L20.5613 11.2344C21.1767 10.619 22.1502 10.619 22.7656 11.2344C23.381 11.8497 23.381 12.8233 22.7656 13.4386L21.0205 15.1837C20.9458 15.2563 20.9034 15.356 20.9026 15.4603C20.9019 15.5646 20.943 15.6648 21.0167 15.7385C21.0905 15.8123 21.1907 15.8533 21.295 15.8527C21.3992 15.8519 21.4989 15.8095 21.5717 15.7347L23.3167 13.9897C24.2278 13.0786 24.2278 11.5944 23.3167 10.6833C22.4056 9.77224 20.9214 9.77222 20.0103 10.6833L18.1734 12.5202Z" fill="white"/>
</g>
<defs>
<filter id="filter0_d_111_44" x="0" y="0" width="37.5184" height="37.5818" filterUnits="userSpaceOnUse" color-interpolation-filters="sRGB">
<feFlood flood-opacity="0" result="BackgroundImageFix"/>
<feColorMatrix in="SourceAlpha" type="matrix" values="0 0 0 0 0 0 0 0 0 0 0 0 0 0 0 0 0 0 127 0" result="hardAlpha"/>
<feOffset dy="4"/>
<feGaussianBlur stdDeviation="2"/>
<feComposite in2="hardAlpha" operator="out"/>
<feColorMatrix type="matrix" values="0 0 0 0 0 0 0 0 0 0 0 0 0 0 0 0 0 0 0.25 0"/>
<feBlend mode="normal" in2="BackgroundImageFix" result="effect1_dropShadow_111_44"/>
<feBlend mode="normal" in="SourceGraphic" in2="effect1_dropShadow_111_44" result="shape"/>
</filter>
</defs>
</svg>
