<svg width="45" height="45" viewBox="0 0 45 45" fill="none" xmlns="http://www.w3.org/2000/svg">
<path d="M22.5 45C34.9264 45 45 34.9264 45 22.5C45 10.0736 34.9264 0 22.5 0C10.0736 0 0 10.0736 0 22.5C0 34.9264 10.0736 45 22.5 45Z" fill="#FEA11C"/>
<path d="M22.524 38.5816C13.4663 38.5816 6.0979 31.293 6.0979 22.3333C6.0979 13.3736 13.4663 6.08496 22.524 6.08496C31.5817 6.08496 38.9501 13.3736 38.9501 22.3333C38.9501 31.293 31.5817 38.5816 22.524 38.5816ZM22.524 8.116C14.5984 8.116 8.15116 14.4935 8.15116 22.3333C8.15116 30.1731 14.5984 36.5506 22.524 36.5506C30.4496 36.5506 36.8968 30.1731 36.8968 22.3333C36.8968 14.4935 30.4496 8.116 22.524 8.116Z" fill="white"/>
<path d="M19.6162 30.5384C26.7507 30.5384 30.64 24.6304 30.64 19.5381C30.64 19.3651 30.64 19.192 30.64 19.0437C31.408 18.4999 32.0521 17.8077 32.5723 17.0414C31.8786 17.3381 31.1355 17.5605 30.3427 17.6594C31.1355 17.1897 31.7548 16.4234 32.0521 15.5088C31.3089 15.9537 30.4666 16.2751 29.5996 16.4481C28.8812 15.6818 27.8902 15.2122 26.7755 15.2122C24.6203 15.2122 22.8862 16.9425 22.8862 19.0931C22.8862 19.3898 22.9109 19.6864 22.9853 19.9831C19.7648 19.81 16.916 18.2774 14.9837 15.929C14.6616 16.4976 14.4635 17.165 14.4635 17.8572C14.4635 19.192 15.1571 20.3786 16.1975 21.0707C15.5535 21.046 14.9589 20.873 14.4387 20.5763C14.4387 20.601 14.4387 20.601 14.4387 20.6258C14.4387 22.5045 15.7764 24.0618 17.56 24.4079C17.238 24.5068 16.8912 24.5562 16.5444 24.5562C16.2966 24.5562 16.0489 24.5315 15.826 24.482C16.3214 26.0147 17.7582 27.127 19.4428 27.1765C18.105 28.2147 16.4453 28.8327 14.6369 28.8327C14.3148 28.8327 14.0175 28.808 13.7203 28.7833C15.4048 29.8957 17.4362 30.5384 19.6162 30.5384Z" fill="white"/>
</svg>
