<?xml version="1.0" encoding="UTF-8" standalone="no"?><!DOCTYPE svg PUBLIC "-//W3C//DTD SVG 1.1//EN" "http://www.w3.org/Graphics/SVG/1.1/DTD/svg11.dtd"><svg width="100%" height="100%" viewBox="0 0 24 24" version="1.1" xmlns="http://www.w3.org/2000/svg" xmlns:xlink="http://www.w3.org/1999/xlink" xml:space="preserve" style="fill-rule:evenodd;clip-rule:evenodd;stroke-linejoin:round;stroke-miterlimit:1.41421;"><path d="M14.17,13.77l-0.649,0l-0.231,-0.213c0.806,-0.899 1.291,-2.066 1.291,-3.336c0,-2.831 -2.392,-5.126 -5.343,-5.126c-2.951,0 -5.343,2.295 -5.343,5.126c0,2.831 2.392,5.126 5.343,5.126c1.323,0 2.54,-0.465 3.477,-1.238l0.222,0.221l0,0.623l4.11,3.935l1.225,-1.175l-4.102,-3.943Zm-4.932,0c-2.047,0 -3.699,-1.585 -3.699,-3.549c0,-1.964 1.652,-3.549 3.699,-3.549c2.047,0 3.699,1.585 3.699,3.549c0,1.964 -1.652,3.549 -3.699,3.549Z" style="fill:#e29424;fill-rule:nonzero;"/><rect x="0" y="0" width="24" height="24" style="fill:none;"/></svg>