<?xml version="1.0" encoding="UTF-8" standalone="no"?>
<!DOCTYPE svg PUBLIC "-//W3C//DTD SVG 1.1//EN" "http://www.w3.org/Graphics/SVG/1.1/DTD/svg11.dtd">
<svg width="100%" height="100%" viewBox="0 0 50 50" version="1.1" xmlns="http://www.w3.org/2000/svg" xmlns:xlink="http://www.w3.org/1999/xlink" xml:space="preserve" xmlns:serif="http://www.serif.com/" style="fill-rule:evenodd;clip-rule:evenodd;stroke-linejoin:round;stroke-miterlimit:2;">
    <g transform="matrix(0.0976563,0,0,0.0976563,0,0)">
        <g transform="matrix(0.982432,0,0,0.986486,4.49731,3.45946)">
            <path d="M256,0C114.618,0 0,114.618 0,256C0,397.382 114.618,512 256,512C397.382,512 512,397.382 512,256C512,114.618 397.382,0 256,0ZM256,469.333C138.182,469.333 42.667,373.818 42.667,256C42.667,138.182 138.182,42.667 256,42.667C373.818,42.667 469.333,138.182 469.333,256C469.333,373.818 373.818,469.333 256,469.333Z" style="fill:rgb(128,128,128);fill-rule:nonzero;"/>
        </g>
        <g transform="matrix(0.928648,0,0,0.717375,17.5742,30.8819)">
            <path d="M326.248,283.582L277.333,332.497L277.333,128C277.333,116.218 267.782,106.667 256,106.667C244.218,106.667 234.667,116.218 234.667,128L234.667,332.497L185.752,283.582C177.421,275.251 163.913,275.251 155.582,283.582C147.251,291.913 147.251,305.421 155.582,313.752L240.915,399.085C240.919,399.089 240.923,399.091 240.926,399.095C241.42,399.588 241.938,400.055 242.478,400.498C242.725,400.701 242.985,400.877 243.239,401.067C243.542,401.294 243.839,401.529 244.154,401.74C244.458,401.943 244.773,402.119 245.084,402.305C245.37,402.476 245.649,402.655 245.944,402.813C246.261,402.983 246.587,403.126 246.911,403.279C247.219,403.424 247.521,403.578 247.836,403.709C248.15,403.839 248.471,403.944 248.789,404.058C249.127,404.18 249.461,404.309 249.807,404.414C250.125,404.51 250.449,404.581 250.771,404.662C251.124,404.751 251.472,404.85 251.832,404.921C252.204,404.995 252.58,405.038 252.954,405.092C253.268,405.137 253.576,405.197 253.895,405.228C254.588,405.296 255.283,405.333 255.978,405.333C255.985,405.333 255.993,405.334 256,405.334C256.007,405.334 256.015,405.333 256.022,405.333C256.717,405.332 257.412,405.296 258.105,405.228C258.423,405.197 258.732,405.137 259.046,405.092C259.421,405.038 259.796,404.995 260.168,404.921C260.527,404.85 260.876,404.751 261.229,404.662C261.551,404.581 261.874,404.51 262.193,404.414C262.539,404.309 262.873,404.18 263.211,404.058C263.529,403.944 263.85,403.839 264.164,403.709C264.479,403.578 264.782,403.425 265.089,403.279C265.413,403.126 265.739,402.983 266.056,402.813C266.35,402.655 266.63,402.476 266.916,402.305C267.227,402.119 267.542,401.943 267.846,401.74C268.161,401.529 268.458,401.294 268.761,401.067C269.015,400.877 269.275,400.701 269.522,400.498C270.062,400.055 270.581,399.588 271.074,399.095C271.078,399.091 271.082,399.089 271.085,399.085L356.418,313.752C364.749,305.421 364.749,291.913 356.418,283.582C348.087,275.251 334.58,275.251 326.248,283.582Z" style="fill:rgb(128,128,128);fill-rule:nonzero;"/>
        </g>
        <g transform="matrix(1.05517,0,0,0.999999,-11.531,-14.0108)">
            <rect x="153.254" y="374.314" width="200.649" height="30.443" style="fill:rgb(128,128,128);"/>
        </g>
    </g>
</svg>
