<?xml version="1.0" encoding="UTF-8" standalone="no"?>
<!DOCTYPE svg PUBLIC "-//W3C//DTD SVG 1.1//EN" "http://www.w3.org/Graphics/SVG/1.1/DTD/svg11.dtd">
<svg width="100%" height="100%" viewBox="0 0 50 50" version="1.1" xmlns="http://www.w3.org/2000/svg" xmlns:xlink="http://www.w3.org/1999/xlink" xml:space="preserve" xmlns:serif="http://www.serif.com/" style="fill-rule:evenodd;clip-rule:evenodd;stroke-linejoin:round;stroke-miterlimit:2;">
    <g transform="matrix(0.0976563,0,0,0.0976563,0,0)">
        <path d="M256,0C114.618,0 0,114.618 0,256C0,397.382 114.618,512 256,512C397.382,512 512,397.382 512,256C512,114.618 397.382,0 256,0ZM256,469.333C138.182,469.333 42.667,373.818 42.667,256C42.667,138.182 138.182,42.667 256,42.667C373.818,42.667 469.333,138.182 469.333,256C469.333,373.818 373.818,469.333 256,469.333Z" style="fill:rgb(128,128,128);fill-rule:nonzero;"/>
        <g transform="matrix(4.02493,0,0,3.3765,-392.352,-549.419)">
            <path d="M187.201,211.948C184.854,202.135 177.068,194.348 167.148,192.001C158.935,190.081 150.615,192.001 144.108,197.121C137.708,202.241 133.975,210.028 133.975,218.241L147.842,218.241C147.842,214.294 149.549,210.561 152.749,208.001C155.949,205.548 160.002,204.588 164.056,205.548C168.749,206.721 172.696,210.561 173.763,215.255C174.936,220.375 173.23,225.388 169.176,228.588C159.576,236.161 154.029,247.041 154.029,258.455L167.896,258.242C167.896,251.095 171.309,244.375 177.709,239.362C186.028,232.748 189.654,222.295 187.201,211.948Z" style="fill:rgb(128,128,128);fill-rule:nonzero;"/>
        </g>
        <g transform="matrix(4.02493,0,0,3.3765,-392.352,-549.419)">
            <rect x="154.028" y="268.482" width="13.867" height="13.333" style="fill:rgb(128,128,128);"/>
        </g>
    </g>
</svg>
