<?xml version="1.0" encoding="UTF-8" standalone="no"?>
<!DOCTYPE svg PUBLIC "-//W3C//DTD SVG 1.1//EN" "http://www.w3.org/Graphics/SVG/1.1/DTD/svg11.dtd">
<svg width="100%" height="100%" viewBox="0 0 474 474" version="1.1" xmlns="http://www.w3.org/2000/svg" xmlns:xlink="http://www.w3.org/1999/xlink" xml:space="preserve" xmlns:serif="http://www.serif.com/" style="fill-rule:evenodd;clip-rule:evenodd;stroke-linejoin:round;stroke-miterlimit:2;">
    <g transform="matrix(1.07872,0,0,1.09807,-91.1493,17.5761)">
        <ellipse cx="304.101" cy="199.353" rx="219.557" ry="215.396" style="fill:white;"/>
        <clipPath id="_clip1">
            <ellipse cx="304.101" cy="199.353" rx="219.557" ry="215.396"/>
        </clipPath>
        <g clip-path="url(#_clip1)">
            <g transform="matrix(0.927027,0,0,1.12327,84.4979,-65.3383)">
                <rect x="189.792" y="7.201" width="89.615" height="462.445" style="fill:rgb(230,30,37);"/>
            </g>
            <g transform="matrix(-0.00133094,0.910689,-1.217,-0.00171646,582.027,-10.5996)">
                <rect x="189.792" y="7.201" width="89.615" height="462.445" style="fill:rgb(230,30,37);"/>
            </g>
            <g transform="matrix(0.953899,0.930721,-0.653269,0.646147,139.508,-87.9064)">
                <rect x="56.379" y="81.253" width="394.307" height="45.448" style="fill:rgb(230,30,37);"/>
            </g>
            <g transform="matrix(-0.943969,0.929714,-0.656347,-0.643129,618.722,23.8508)">
                <rect x="56.379" y="81.253" width="394.307" height="45.448" style="fill:rgb(230,30,37);"/>
            </g>
        </g>
    </g>
    <g>
        <path d="M41.712,102.641C26.439,124.809 14.832,149.7 7.794,176.453L115.528,176.453L41.712,102.641Z" style="fill:rgb(41,51,122);fill-rule:nonzero;"/>
        <path d="M170.511,9.48C143.223,17.427 117.951,30.108 95.697,46.648L170.511,121.462L170.511,9.48Z" style="fill:rgb(41,51,122);fill-rule:nonzero;"/>
        <path d="M101.261,430.982C122.135,445.589 145.456,456.897 170.511,464.193L170.511,361.743L101.261,430.982Z" style="fill:rgb(41,51,122);fill-rule:nonzero;"/>
        <path d="M10.512,306.771C18.343,332.137 30.343,355.67 45.679,376.604L115.512,306.771L10.512,306.771Z" style="fill:rgb(41,51,122);fill-rule:nonzero;"/>
    </g>
    <g>
        <path d="M170.511,306.056L169.8,306.771L170.511,306.771L170.511,306.056Z" style="fill:rgb(211,32,48);fill-rule:nonzero;"/>
        <path d="M190.084,286.487L190.794,286.487L190.794,285.773L190.084,286.487Z" style="fill:rgb(211,32,48);fill-rule:nonzero;"/>
        <path d="M281.229,196.737L280.545,196.737L280.545,197.425L281.229,196.737Z" style="fill:rgb(211,32,48);fill-rule:nonzero;"/>
        <path d="M171.21,176.457L170.511,175.754L170.511,176.457L171.21,176.457Z" style="fill:rgb(211,32,48);fill-rule:nonzero;"/>
        <path d="M190.794,196.037L190.794,196.737L191.494,196.737L190.794,196.037Z" style="fill:rgb(211,32,48);fill-rule:nonzero;"/>
    </g>
    <g>
        <path d="M300.825,411.764L300.825,464.855C326.206,457.75 349.87,446.55 371.036,431.958L313.51,374.432C308.913,390.583 307.231,398.933 300.825,411.764Z" style="fill:rgb(37,47,108);fill-rule:nonzero;"/>
        <path d="M313.812,108.471L376.611,45.672C354.05,29.15 328.456,16.559 300.824,8.818L300.824,63.356C308.21,78.146 308.831,89.384 313.812,108.471Z" style="fill:rgb(37,47,108);fill-rule:nonzero;"/>
        <path d="M427.029,377.984C442.844,356.709 455.17,332.694 463.176,306.771L355.816,306.771L427.029,377.984Z" style="fill:rgb(37,47,108);fill-rule:nonzero;"/>
        <path d="M465.887,176.457C458.699,149.139 446.744,123.781 430.989,101.265L355.789,176.457L465.887,176.457Z" style="fill:rgb(37,47,108);fill-rule:nonzero;"/>
    </g>
    <g>
        <path d="M225.019,0.292C228.965,0.101 232.899,0 236.836,0C232.876,0 228.935,0.101 225.019,0.292Z" style="fill:rgb(211,32,48);fill-rule:nonzero;"/>
        <path d="M236.836,473.68C232.898,473.68 228.964,473.572 225.026,473.381C228.942,473.579 232.876,473.68 236.836,473.68Z" style="fill:rgb(211,32,48);fill-rule:nonzero;"/>
    </g>
    <g>
        <path d="M300.825,422.007C307.231,409.173 312.724,394.398 317.324,378.25L300.825,361.751L300.825,422.007Z" style="fill:rgb(41,51,122);fill-rule:nonzero;"/>
        <path d="M319.377,102.906C314.388,83.819 308.211,66.467 300.825,51.677L300.825,121.45L319.377,102.906Z" style="fill:rgb(41,51,122);fill-rule:nonzero;"/>
    </g>
</svg>
