<svg width="45" height="45" viewBox="0 0 45 45" fill="none" xmlns="http://www.w3.org/2000/svg">
<path d="M22.5 45C34.9264 45 45 34.9264 45 22.5C45 10.0736 34.9264 0 22.5 0C10.0736 0 0 10.0736 0 22.5C0 34.9264 10.0736 45 22.5 45Z" fill="#FEA11C"/>
<path d="M22.524 38.5816C13.4663 38.5816 6.0979 31.293 6.0979 22.3333C6.0979 13.3736 13.4663 6.08496 22.524 6.08496C31.5817 6.08496 38.9501 13.3736 38.9501 22.3333C38.9501 31.293 31.5817 38.5816 22.524 38.5816ZM22.524 8.116C14.5984 8.116 8.15116 14.4935 8.15116 22.3333C8.15116 30.1731 14.5984 36.5506 22.524 36.5506C30.4496 36.5506 36.8968 30.1731 36.8968 22.3333C36.8968 14.4935 30.4496 8.116 22.524 8.116Z" fill="white"/>
<path d="M25.447 15.8038H27.4405V12.1719H23.8176C23.5154 12.1593 19.8313 12.0891 18.8764 15.7226C18.8626 15.7607 18.5575 16.6248 18.5575 18.6434L15.2448 18.6535V22.4627L18.5617 22.4531V32.5004H23.6282V22.4618H26.9815V18.6426H23.6282V17.4409C23.6282 16.6938 23.9438 15.8038 25.447 15.8038ZM26.1432 19.4787V21.6249H22.7898V31.6635H19.4V21.614L16.0831 21.6236V19.4875L19.4088 19.4779L19.4 19.0525C19.3564 16.9143 19.662 16.015 19.6758 15.9719C20.4999 12.8424 23.6466 12.9997 23.7816 13.008L26.6022 13.0089V14.9676H25.447C23.4882 14.9676 22.7902 16.245 22.7902 17.4405V19.4787H26.1432Z" fill="white"/>
</svg>
