<svg width="45" height="45" viewBox="0 0 45 45" fill="none" xmlns="http://www.w3.org/2000/svg">
<path d="M22.5 45C34.9264 45 45 34.9264 45 22.5C45 10.0736 34.9264 0 22.5 0C10.0736 0 0 10.0736 0 22.5C0 34.9264 10.0736 45 22.5 45Z" fill="#FEA11C"/>
<path d="M22.524 38.5816C13.4663 38.5816 6.0979 31.293 6.0979 22.3333C6.0979 13.3736 13.4663 6.08496 22.524 6.08496C31.5817 6.08496 38.9501 13.3736 38.9501 22.3333C38.9501 31.293 31.5817 38.5816 22.524 38.5816ZM22.524 8.116C14.5984 8.116 8.15116 14.4935 8.15116 22.3333C8.15116 30.1731 14.5984 36.5506 22.524 36.5506C30.4496 36.5506 36.8968 30.1731 36.8968 22.3333C36.8968 14.4935 30.4496 8.116 22.524 8.116Z" fill="white"/>
<path d="M16.2865 24.3551C14.8975 25.741 14.8975 27.9988 16.2865 29.3848C17.6754 30.7707 19.938 30.7707 21.3269 29.3848L24.1272 26.5905C25.5162 25.2045 25.5162 22.9467 24.1272 21.5608V21.5606C24.0164 21.4469 23.8645 21.3823 23.7055 21.3812C23.5465 21.3801 23.3938 21.4427 23.2813 21.5548C23.1689 21.667 23.1062 21.8195 23.1073 21.9781C23.1084 22.1367 23.1732 22.2884 23.2871 22.3989C24.2253 23.335 24.2253 24.816 23.2871 25.7521L20.4869 28.5464C19.5487 29.4825 18.0646 29.4825 17.1265 28.5464C16.1884 27.6103 16.1884 26.1293 17.1265 25.1932L19.7867 22.5385L19.7869 22.5387C19.9009 22.4281 19.9657 22.2765 19.967 22.1177C19.9681 21.9591 19.9054 21.8065 19.7929 21.6943C19.6805 21.582 19.5276 21.5196 19.3685 21.5207C19.2095 21.5218 19.0576 21.5865 18.9466 21.7004L16.2864 24.3549L16.2865 24.3551ZM21.607 19.0459C20.218 20.4319 20.218 22.6897 21.607 24.0756C21.7178 24.1893 21.8697 24.2538 22.0287 24.2549C22.1877 24.256 22.3404 24.1935 22.4528 24.0813C22.5651 23.9692 22.6278 23.8168 22.6267 23.6581C22.6256 23.4995 22.561 23.3479 22.447 23.2373C21.5089 22.3012 21.5089 20.8203 22.447 19.8842L25.2473 17.0899C26.1854 16.1538 27.6696 16.1538 28.6077 17.0899C29.5458 18.026 29.5458 19.5069 28.6077 20.4431L25.9473 23.0976C25.8334 23.2081 25.7687 23.3597 25.7676 23.5184C25.7665 23.677 25.8291 23.8295 25.9415 23.9416C26.054 24.0538 26.2067 24.1163 26.3657 24.1153C26.5247 24.1142 26.6766 24.0496 26.7875 23.9359L29.4478 21.2813C30.8367 19.8953 30.8367 17.6376 29.4478 16.2516C28.0588 14.8657 25.7962 14.8657 24.4073 16.2516L21.607 19.0459Z" fill="white"/>
</svg>
