<svg id="Calque_1" data-name="Calque 1" xmlns="http://www.w3.org/2000/svg" viewBox="0 0 135 45"><defs><style>.cls-1{fill:#fea11c;}.cls-2{fill:#fff;}</style></defs><title>menu-icon</title><g id="Rectangle_arrondi_3" data-name="Rectangle arrondi 3"><path class="cls-1" d="M113.37,1h-90a22.5,22.5,0,0,0,0,45h90a22.5,22.5,0,0,0,0-45Z" transform="translate(-0.87 -1)"/></g><path class="cls-2" d="M68.82,29.68,64.46,18.29h-.07c.09.9.13,2,.13,3.22v8.17H63.14V16.83h2.25l4.07,10.6h.07l4.1-10.6h2.23V29.68H74.37V21.4q0-1.42.12-3.09h-.07L70,29.68Z" transform="translate(-0.87 -1)"/><path class="cls-2" d="M86.55,29.68H79.39V16.83h7.16v1.33H80.88V22.3h5.33v1.32H80.88v4.72h5.67Z" transform="translate(-0.87 -1)"/><path class="cls-2" d="M99.44,29.68H97.73l-7-10.78h-.07c.09,1.26.14,2.42.14,3.48v7.3H89.4V16.83h1.69l7,10.74h.07c0-.16,0-.67-.08-1.52s0-1.48,0-1.85V16.83h1.4Z" transform="translate(-0.87 -1)"/><path class="cls-2" d="M112.67,16.83v8.31a4.55,4.55,0,0,1-1.32,3.46,5.09,5.09,0,0,1-3.65,1.26,4.87,4.87,0,0,1-3.59-1.27,4.67,4.67,0,0,1-1.27-3.48V16.83h1.49v8.38a3.31,3.31,0,0,0,.88,2.47,3.53,3.53,0,0,0,2.58.87,3.42,3.42,0,0,0,2.51-.87,3.31,3.31,0,0,0,.88-2.48V16.83Z" transform="translate(-0.87 -1)"/><g id="Rectangle_arrondi_1_copie_2_Masque" data-name="Rectangle arrondi 1 copie 2 Masque"><path class="cls-2" d="M46.37,31h-25a2.5,2.5,0,0,0,0,5h25a2.5,2.5,0,1,0,0-5Z" transform="translate(-0.87 -1)"/></g><g id="Rectangle_arrondi_1_copie_2_Masque-2" data-name="Rectangle arrondi 1 copie 2 Masque"><path class="cls-2" d="M46.44,21h-25a2.5,2.5,0,1,0,0,5h25a2.5,2.5,0,0,0,0-5Z" transform="translate(-0.87 -1)"/></g><g id="Rectangle_arrondi_1_copie_2_Masque-3" data-name="Rectangle arrondi 1 copie 2 Masque"><path class="cls-2" d="M46.44,11h-25a2.5,2.5,0,1,0,0,5h25a2.5,2.5,0,0,0,0-5Z" transform="translate(-0.87 -1)"/></g></svg>