<svg width="45" height="45" viewBox="0 0 45 45" fill="none" xmlns="http://www.w3.org/2000/svg">
<path d="M22.5 45C34.9264 45 45 34.9264 45 22.5C45 10.0736 34.9264 0 22.5 0C10.0736 0 0 10.0736 0 22.5C0 34.9264 10.0736 45 22.5 45Z" fill="#FEA11C"/>
<path d="M22.524 38.5816C13.4663 38.5816 6.0979 31.293 6.0979 22.3333C6.0979 13.3736 13.4663 6.08496 22.524 6.08496C31.5817 6.08496 38.9501 13.3736 38.9501 22.3333C38.9501 31.293 31.5817 38.5816 22.524 38.5816ZM22.524 8.116C14.5984 8.116 8.15116 14.4935 8.15116 22.3333C8.15116 30.1731 14.5984 36.5506 22.524 36.5506C30.4496 36.5506 36.8968 30.1731 36.8968 22.3333C36.8968 14.4935 30.4496 8.116 22.524 8.116Z" fill="white"/>
<mask id="path-3-inside-1_112_25" fill="white">
<path fill-rule="evenodd" clip-rule="evenodd" d="M15.2448 15.2122V30.4243H30.4895V15.2122H15.2448ZM19.9864 27.85H17.7246V21.0598H19.9864V27.85ZM18.8555 20.1331H18.8406C18.0819 20.1331 17.5901 19.6115 17.5901 18.9595C17.5901 18.2933 18.0963 17.7864 18.8703 17.7864C19.6446 17.7864 20.1204 18.2933 20.1352 18.9595C20.1352 19.6115 19.6446 20.1331 18.8555 20.1331ZM28.1441 27.85H25.8818V24.2172C25.8818 23.3048 25.5549 22.682 24.7361 22.682C24.1107 22.682 23.7391 23.1013 23.5754 23.5075C23.5159 23.6526 23.5004 23.8543 23.5004 24.0578V27.85H21.2375C21.2375 27.85 21.2679 21.6969 21.2375 21.0599H23.5004V22.022C23.801 21.5604 24.3375 20.9004 25.5393 20.9004C27.0282 20.9004 28.1441 21.8707 28.1441 23.9562V27.85Z"/>
</mask>
<path d="M15.2448 15.2122V3.21216H3.24475V15.2122H15.2448ZM15.2448 30.4243H3.24475V42.4243H15.2448V30.4243ZM30.4895 30.4243V42.4243H42.4895V30.4243H30.4895ZM30.4895 15.2122H42.4895V3.21216H30.4895V15.2122ZM19.9864 27.85V39.85H31.9864V27.85H19.9864ZM17.7246 27.85H5.72465V39.85H17.7246V27.85ZM17.7246 21.0598V9.05983H5.72465V21.0598H17.7246ZM19.9864 21.0598H31.9864V9.05983H19.9864V21.0598ZM20.1352 18.9595H32.1352V18.8262L32.1323 18.6929L20.1352 18.9595ZM28.1441 27.85V39.85H40.1441V27.85H28.1441ZM25.8818 27.85H13.8818V39.85H25.8818V27.85ZM23.5754 23.5075L34.6781 28.0607L34.6919 28.0269L34.7056 27.993L23.5754 23.5075ZM23.5004 27.85V39.85H35.5004V27.85H23.5004ZM21.2375 27.85L9.23768 27.7909L9.17826 39.85H21.2375V27.85ZM21.2375 21.0599V9.05986H8.65274L9.25111 21.6304L21.2375 21.0599ZM23.5004 21.0599H35.5004V9.05986H23.5004V21.0599ZM23.5004 22.022H11.5004V62.4356L33.5558 28.5709L23.5004 22.022ZM3.24475 15.2122V30.4243H27.2448V15.2122H3.24475ZM15.2448 42.4243H30.4895V18.4243H15.2448V42.4243ZM42.4895 30.4243V15.2122H18.4895V30.4243H42.4895ZM30.4895 3.21216H15.2448V27.2122H30.4895V3.21216ZM19.9864 15.85H17.7246V39.85H19.9864V15.85ZM29.7246 27.85V21.0598H5.72465V27.85H29.7246ZM17.7246 33.0598H19.9864V9.05983H17.7246V33.0598ZM7.98643 21.0598V27.85H31.9864V21.0598H7.98643ZM18.8555 8.13306H18.8406V32.1331H18.8555V8.13306ZM18.8406 8.13306C21.2896 8.13306 24.0721 9.02334 26.2989 11.1899C28.5079 13.3391 29.5901 16.1949 29.5901 18.9595H5.59009C5.59009 26.5471 11.767 32.1331 18.8406 32.1331V8.13306ZM29.5901 18.9595C29.5901 21.7787 28.4619 24.701 26.1606 26.8651C23.8848 29.0052 21.141 29.7864 18.8703 29.7864V5.78645C15.8256 5.78645 12.4417 6.82114 9.71931 9.38121C6.97141 11.9652 5.59009 15.474 5.59009 18.9595H29.5901ZM18.8703 29.7864C16.5651 29.7864 13.7565 28.9795 11.4544 26.7579C9.17368 24.5568 8.19394 21.7346 8.13819 19.2262L32.1323 18.6929C32.0617 15.5182 30.8367 12.1095 28.1207 9.48841C25.3835 6.8468 21.9499 5.78645 18.8703 5.78645V29.7864ZM8.13523 18.9595C8.13523 16.1935 9.22187 13.2972 11.492 11.1235C13.7687 8.94346 16.544 8.13306 18.8555 8.13306V32.1331C21.9562 32.1331 25.3713 31.0619 28.0906 28.4581C30.8033 25.8605 32.1352 22.3775 32.1352 18.9595H8.13523ZM28.1441 15.85H25.8818V39.85H28.1441V15.85ZM37.8818 27.85V24.2172H13.8818V27.85H37.8818ZM37.8818 24.2172C37.8818 22.6681 37.6635 19.473 35.5282 16.3438C32.872 12.451 28.6729 10.682 24.7361 10.682V34.682C23.4064 34.682 21.6921 34.4227 19.9086 33.534C18.0858 32.6257 16.6799 31.3017 15.7037 29.8711C13.9366 27.2814 13.8818 24.8539 13.8818 24.2172H37.8818ZM24.7361 10.682C17.6216 10.682 13.7596 15.7606 12.4452 19.0221L34.7056 27.993C34.1843 29.2866 33.2314 30.8895 31.5496 32.2559C29.7117 33.7491 27.3174 34.682 24.7361 34.682V10.682ZM12.4728 18.9544C11.4465 21.4568 11.5004 23.7403 11.5004 24.0578H35.5004C35.5004 24.2235 35.4962 24.6414 35.4294 25.1961C35.3698 25.6912 35.2081 26.7683 34.6781 28.0607L12.4728 18.9544ZM11.5004 24.0578V27.85H35.5004V24.0578H11.5004ZM23.5004 15.85H21.2375V39.85H23.5004V15.85ZM21.2375 27.85C33.2374 27.9091 33.2374 27.9091 33.2374 27.909C33.2374 27.9089 33.2374 27.9088 33.2374 27.9087C33.2374 27.9085 33.2374 27.9082 33.2374 27.9078C33.2374 27.9069 33.2374 27.9057 33.2374 27.9042C33.2374 27.901 33.2375 27.8964 33.2375 27.8904C33.2375 27.8784 33.2376 27.8607 33.2377 27.8377C33.238 27.7917 33.2383 27.7245 33.2387 27.6389C33.2394 27.4677 33.2405 27.2228 33.2417 26.9271C33.2441 26.3362 33.247 25.5399 33.2489 24.7219C33.252 23.3666 33.2578 21.2003 33.224 20.4893L9.25111 21.6304C9.24759 21.5564 9.25335 22.7852 9.24894 24.6657C9.24707 25.4656 9.24425 26.2474 9.2419 26.8302C9.24072 27.1213 9.23967 27.3621 9.2389 27.5299C9.23852 27.6137 9.23822 27.6793 9.23801 27.7238C9.2379 27.746 9.23782 27.763 9.23776 27.7743C9.23774 27.7799 9.23772 27.7841 9.2377 27.7869C9.23769 27.7883 9.23769 27.7893 9.23769 27.79C9.23769 27.7903 9.23768 27.7906 9.23768 27.7907C9.23768 27.7908 9.23768 27.7908 9.23768 27.7909C9.23768 27.7909 9.23768 27.7909 21.2375 27.85ZM21.2375 33.0599H23.5004V9.05986H21.2375V33.0599ZM11.5004 21.0599V22.022H35.5004V21.0599H11.5004ZM33.5558 28.5709C33.3656 28.863 32.561 30.0832 31.0086 31.1571C29.2775 32.3545 27.32 32.9004 25.5393 32.9004V8.90045C22.5568 8.90045 19.7301 9.77636 17.3552 11.4192C15.1589 12.9384 13.9358 14.7195 13.4449 15.4731L33.5558 28.5709ZM25.5393 32.9004C23.6204 32.9004 20.8193 32.206 18.5873 29.7909C16.4403 27.4678 16.1441 24.9858 16.1441 23.9562H40.1441C40.1441 20.8411 39.29 16.8312 36.2128 13.5016C33.0506 10.08 28.9471 8.90045 25.5393 8.90045V32.9004ZM16.1441 23.9562V27.85H40.1441V23.9562H16.1441Z" fill="white" mask="url(#path-3-inside-1_112_25)"/>
</svg>
