<svg id="logo_Image" data-name="logo Image" xmlns="http://www.w3.org/2000/svg" viewBox="0 0 456.53 54.6"><defs><style>.cls-1{fill:#585453;}.cls-2{fill:#585553;}</style></defs><title>logo-title</title><path class="cls-1" d="M7,4.46,8.58,6.69q1.2,1.74,3,4.26t4,5.58l4.55,6.21c1.53,2.11,3,4.16,4.51,6.18s2.79,3.84,4,5.5,2.19,3,3,4.15,1.34,1.81,1.53,2.1c.09-.15.52-.75,1.27-1.81l2.88-4c1.16-1.6,2.47-3.44,3.94-5.5s3-4.15,4.54-6.28,3.09-4.24,4.58-6.32,2.87-4,4.12-5.68,2.31-3.15,3.16-4.33l1.63-2.27v54H50V32.07a5.83,5.83,0,0,1,.14-1.2,5.51,5.51,0,0,0,.15-.78L33.22,54.72q-.36-.42-1.74-2.34l-3.31-4.54c-1.27-1.75-2.62-3.64-4-5.65s-2.76-3.88-4-5.61-2.32-3.19-3.2-4.4-1.36-1.9-1.45-2.09a4.86,4.86,0,0,0,.14.78,5.83,5.83,0,0,1,.14,1.2V58.49H7Z" transform="translate(-7.02 -4.46)"/><path class="cls-1" d="M119.83,58.49V6.73H134a30.39,30.39,0,0,1,7,.74,14.85,14.85,0,0,1,5.33,2.35A10.32,10.32,0,0,1,149.62,14a15,15,0,0,1,1.17,6.21,19.1,19.1,0,0,1-.39,3.87,12.39,12.39,0,0,1-1.28,3.48,10,10,0,0,1-2.31,2.8,9.64,9.64,0,0,1-3.55,1.85,15.62,15.62,0,0,1,3.59,1.2,10.89,10.89,0,0,1,5.54,5.93,13.4,13.4,0,0,1,.89,5.08,13.18,13.18,0,0,1-1.46,6.42A12.85,12.85,0,0,1,148,55.22a15.94,15.94,0,0,1-5.51,2.49,26.52,26.52,0,0,1-6.46.78Zm8.67-43.88V28.67H135a6.52,6.52,0,0,0,5.36-2.13,7.83,7.83,0,0,0,1.74-5.11A6.14,6.14,0,0,0,140,16.28a9.1,9.1,0,0,0-5.75-1.67Zm0,21.44V50.61h6.81a13.65,13.65,0,0,0,3.62-.47,9.5,9.5,0,0,0,3-1.34,6.13,6.13,0,0,0,2-2.28,6.9,6.9,0,0,0,.71-3.23,6.43,6.43,0,0,0-.85-3.44,6.67,6.67,0,0,0-2.27-2.24,10,10,0,0,0-3.23-1.2,19.1,19.1,0,0,0-3.73-.36Z" transform="translate(-7.02 -4.46)"/><path class="cls-1" d="M162.08,6.73h8.73V58.49h-8.73Z" transform="translate(-7.02 -4.46)"/><path class="cls-1" d="M182.74,58.49V6.73h8.66V50.25h25.13v8.24Z" transform="translate(-7.02 -4.46)"/><path class="cls-1" d="M223.56,6.73h8.74V58.49h-8.74Z" transform="translate(-7.02 -4.46)"/><path class="cls-1" d="M274.75,9.64l-3.12,7.1A49.22,49.22,0,0,0,265.74,15a25.63,25.63,0,0,0-5.4-.63,12,12,0,0,0-6.85,1.7A5.08,5.08,0,0,0,251,20.43a4.41,4.41,0,0,0,1.88,3.69,20.36,20.36,0,0,0,4.72,2.56c1.9.76,3.94,1.53,6.14,2.31a28.94,28.94,0,0,1,6.14,3,16.38,16.38,0,0,1,4.73,4.69,12.89,12.89,0,0,1,1.88,7.24,15.09,15.09,0,0,1-1.24,6.18,12.88,12.88,0,0,1-3.73,4.76A18,18,0,0,1,265.2,58a31.92,31.92,0,0,1-8.91,1.1,35.26,35.26,0,0,1-5.68-.42A34.1,34.1,0,0,1,246,57.56a27,27,0,0,1-6.28-2.84l3.76-7.59a27.8,27.8,0,0,0,6.39,2.52,20.59,20.59,0,0,0,9.34.6,16.54,16.54,0,0,0,3.94-1.06,10.09,10.09,0,0,0,3.3-2.13,4.63,4.63,0,0,0,1.39-3.48A5.15,5.15,0,0,0,266,39.49a19.3,19.3,0,0,0-4.73-2.84q-2.83-1.23-6.14-2.45A37.22,37.22,0,0,1,249,31.33a16.25,16.25,0,0,1-4.72-4.12A9.91,9.91,0,0,1,242.38,21a13.8,13.8,0,0,1,1.06-5.29,13.42,13.42,0,0,1,3.23-4.65,16.71,16.71,0,0,1,5.4-3.34,20.73,20.73,0,0,1,7.63-1.28,30.28,30.28,0,0,1,5.36.47c1.73.3,3.28.65,4.65,1A30.78,30.78,0,0,1,273.12,9C274,9.39,274.56,9.59,274.75,9.64Z" transform="translate(-7.02 -4.46)"/><path class="cls-1" d="M323.74,54.65A24.16,24.16,0,0,1,321.37,56a24.62,24.62,0,0,1-3.63,1.46A34.15,34.15,0,0,1,313,58.59a32.18,32.18,0,0,1-5.61.46A27.14,27.14,0,0,1,296.48,57a24.39,24.39,0,0,1-8.17-5.64A24.71,24.71,0,0,1,283.2,43a28.47,28.47,0,0,1-1.77-10,26.87,26.87,0,0,1,2.13-10.76,26.46,26.46,0,0,1,5.79-8.52,26,26,0,0,1,8.51-5.57,27.18,27.18,0,0,1,10.41-2,29.71,29.71,0,0,1,4.29.32,37.7,37.7,0,0,1,4.08.82A23,23,0,0,1,320,8.43a6.27,6.27,0,0,1,2.09,1.35c-.43.66-.76,1.21-1,1.63l-.75,1.32c-.26.45-.54,1-.85,1.52s-.75,1.35-1.31,2.35a9.64,9.64,0,0,0-2.06-1,17.27,17.27,0,0,0-2.52-.67q-1.32-.25-2.67-.39a21.81,21.81,0,0,0-2.41-.14,17.89,17.89,0,0,0-7.35,1.49,18.75,18.75,0,0,0-5.82,3.94,17.86,17.86,0,0,0-3.83,5.71,17,17,0,0,0-1.39,6.75,17.62,17.62,0,0,0,1.31,6.64,18,18,0,0,0,3.7,5.71,18.36,18.36,0,0,0,5.64,4,16.86,16.86,0,0,0,7.24,1.53,20.62,20.62,0,0,0,4.41-.46,32.67,32.67,0,0,0,3.76-1,17.59,17.59,0,0,0,2.66-1.14c.69-.38,1.05-.64,1.1-.78Z" transform="translate(-7.02 -4.46)"/><path class="cls-1" d="M325.38,32.71a25.53,25.53,0,0,1,2.09-10.22,27.1,27.1,0,0,1,14.06-14.2,25.68,25.68,0,0,1,20.48,0A27.57,27.57,0,0,1,370.46,14a27,27,0,0,1,5.72,8.45,26.13,26.13,0,0,1,0,20.48,26.66,26.66,0,0,1-5.72,8.38A26.94,26.94,0,0,1,362,57a26.6,26.6,0,0,1-20.48,0,26.74,26.74,0,0,1-8.38-5.65A27.05,27.05,0,0,1,327.47,43,25.41,25.41,0,0,1,325.38,32.71Zm8.73,0a18,18,0,0,0,1.39,7.07,17.71,17.71,0,0,0,3.83,5.75A18.58,18.58,0,0,0,345,49.4a17.1,17.1,0,0,0,7,1.42,16.74,16.74,0,0,0,6.85-1.42,17.58,17.58,0,0,0,5.61-3.87,18.39,18.39,0,0,0,3.77-5.75,18.15,18.15,0,0,0,1.38-7.07,17.64,17.64,0,0,0-1.42-7.06,19.09,19.09,0,0,0-3.83-5.79,17.85,17.85,0,0,0-5.65-3.9,17.57,17.57,0,0,0-13.84,0,17.35,17.35,0,0,0-5.61,3.9,18.72,18.72,0,0,0-3.76,5.79A18,18,0,0,0,334.11,32.71Z" transform="translate(-7.02 -4.46)"/><path class="cls-1" d="M386.79,58.49V6.73h14.63a25.36,25.36,0,0,1,7.77,1.13,16.94,16.94,0,0,1,6,3.27,14.49,14.49,0,0,1,3.8,5.25,17.77,17.77,0,0,1,1.34,7,21.45,21.45,0,0,1-.92,6.22,15,15,0,0,1-3,5.53,15.33,15.33,0,0,1-5.43,4,19.7,19.7,0,0,1-8.23,1.53h-7.25V58.49Zm8.66-26h7a9.76,9.76,0,0,0,4.48-.92,8.42,8.42,0,0,0,4.33-5.22,10.45,10.45,0,0,0,.42-2.73,11,11,0,0,0-.39-2.67,8,8,0,0,0-1.42-2.87,8.2,8.2,0,0,0-2.8-2.27,9.79,9.79,0,0,0-4.55-.93h-7Z" transform="translate(-7.02 -4.46)"/><path class="cls-1" d="M428.18,58.49V6.73h34.37v7.88h-25.7V28.53h22.86v8.09H436.85V50.39h26.69v8.1Z" transform="translate(-7.02 -4.46)"/><path class="cls-2" d="M108,14.09a26,26,0,1,1-36.83,0A26,26,0,0,1,108,14.09ZM72.38,49.7a24.31,24.31,0,1,0,0-34.38A24.31,24.31,0,0,0,72.38,49.7Z" transform="translate(-7.02 -4.46)"/><path class="cls-2" d="M78.51,43.56a.87.87,0,0,1,0,1.23l-2.45,2.45A.87.87,0,1,1,74.83,46l2.46-2.45A.86.86,0,0,1,78.51,43.56Z" transform="translate(-7.02 -4.46)"/><path class="cls-2" d="M85.23,50.34a.87.87,0,0,1,.23.84l-.23.84a.86.86,0,0,1-1.67-.45l.22-.84a.87.87,0,0,1,1.07-.61A.81.81,0,0,1,85.23,50.34Z" transform="translate(-7.02 -4.46)"/><path class="cls-2" d="M95.12,50.34a.86.86,0,0,1,.23.39l.22.84a.87.87,0,0,1-1.68.45l-.22-.84a.87.87,0,0,1,1.45-.84Z" transform="translate(-7.02 -4.46)"/><path class="cls-2" d="M101.84,43.56,104.3,46a.89.89,0,0,1,0,1.23.87.87,0,0,1-1.23,0l-2.46-2.45a.87.87,0,1,1,1.23-1.23Z" transform="translate(-7.02 -4.46)"/><path class="cls-2" d="M109.46,37.06a.87.87,0,0,1-.84,1.45l-.83-.22a.87.87,0,0,1,.43-1.68h0l.83.23A.8.8,0,0,1,109.46,37.06Z" transform="translate(-7.02 -4.46)"/><path class="cls-2" d="M109.46,26.73a.86.86,0,0,1,0,1.22.81.81,0,0,1-.39.23l-.83.22a.86.86,0,0,1-.45-1.67l.83-.23A.87.87,0,0,1,109.46,26.73Z" transform="translate(-7.02 -4.46)"/><path class="cls-2" d="M104.3,17.78a.88.88,0,0,1,0,1.22l-2.46,2.46a.87.87,0,1,1-1.23-1.23l2.46-2.45A.87.87,0,0,1,104.3,17.78Z" transform="translate(-7.02 -4.46)"/><path class="cls-2" d="M95.35,12.61a.87.87,0,0,1,.22.84l-.22.84a.88.88,0,0,1-1.06.62.86.86,0,0,1-.62-1.06h0l.22-.84A.88.88,0,0,1,95,12.38a.92.92,0,0,1,.39.23Z" transform="translate(-7.02 -4.46)"/><path class="cls-2" d="M85,12.61a.76.76,0,0,1,.22.39l.23.84a.87.87,0,0,1-1.67.46h0l-.22-.84A.86.86,0,0,1,85,12.61Z" transform="translate(-7.02 -4.46)"/><path class="cls-2" d="M76.06,17.78l2.45,2.45a.87.87,0,0,1,0,1.23.86.86,0,0,1-1.22,0L74.83,19a.86.86,0,0,1,0-1.22A.87.87,0,0,1,76.06,17.78Z" transform="translate(-7.02 -4.46)"/><path class="cls-2" d="M71.73,27a.87.87,0,0,1-.84,1.45l-.84-.22a.88.88,0,0,1-.61-1.07.87.87,0,0,1,1.06-.61l.84.23A.76.76,0,0,1,71.73,27Z" transform="translate(-7.02 -4.46)"/><path class="cls-2" d="M71.73,36.84a.87.87,0,0,1,0,1.23.94.94,0,0,1-.39.22l-.84.22a.87.87,0,0,1-1.06-.62.86.86,0,0,1,.61-1l.84-.23A.87.87,0,0,1,71.73,36.84Z" transform="translate(-7.02 -4.46)"/><path class="cls-2" d="M87.22,35.49a2.6,2.6,0,0,0,4.69-2.25l4.41-4.41a.87.87,0,0,0-1.23-1.22L90.68,32a2.57,2.57,0,0,0-2.23,0l-6.87-6.87a.86.86,0,0,0-1.22,0,.87.87,0,0,0,0,1.23l6.86,6.86A2.61,2.61,0,0,0,87.22,35.49ZM89,35a.87.87,0,0,1,0-1.23.89.89,0,0,1,1.23,0A.87.87,0,0,1,89,35Z" transform="translate(-7.02 -4.46)"/></svg>