<svg width="45" height="45" viewBox="0 0 45 45" fill="none" xmlns="http://www.w3.org/2000/svg">
<path d="M22.5 45C34.9264 45 45 34.9264 45 22.5C45 10.0736 34.9264 0 22.5 0C10.0736 0 0 10.0736 0 22.5C0 34.9264 10.0736 45 22.5 45Z" fill="#FEA11C"/>
<path d="M15.5051 15.2122C14.5149 15.2122 13.7203 16.0432 13.7203 17.0417V26.287C13.7203 27.2855 14.5148 28.1235 15.5051 28.1235H30.2292C31.2193 28.1235 32.0139 27.2855 32.0139 26.287V17.0417C32.0139 16.0432 31.2194 15.2122 30.2292 15.2122H15.5051ZM15.5051 16.1025H30.2292C30.3613 16.1025 30.4859 16.1404 30.5986 16.1929L23.4178 22.9966C23.0882 23.3089 22.6604 23.3089 22.3302 22.9966L15.1355 16.1929C15.2483 16.1404 15.3729 16.1025 15.5049 16.1025H15.5051ZM14.6266 16.9373L19.7087 21.7446L14.7099 26.7257C14.6473 26.596 14.6123 26.4474 14.6123 26.2875V17.0422C14.6123 17.006 14.6227 16.9726 14.6261 16.9378L14.6266 16.9373ZM31.1076 16.9373C31.1111 16.9721 31.1214 17.0055 31.1214 17.0417V26.287C31.1214 26.4448 31.0847 26.5899 31.0238 26.7184L26.0393 21.7374L31.1076 16.9373ZM25.3908 22.3564L30.271 27.2333H30.2291H15.505H15.4701L20.3574 22.3636L21.7169 23.6436C22.3644 24.256 23.3842 24.257 24.0316 23.6436L25.3908 22.3564Z" fill="white"/>
<path d="M22.524 38.5816C13.4663 38.5816 6.0979 31.293 6.0979 22.3333C6.0979 13.3736 13.4663 6.08496 22.524 6.08496C31.5817 6.08496 38.9501 13.3736 38.9501 22.3333C38.9501 31.293 31.5817 38.5816 22.524 38.5816ZM22.524 8.116C14.5984 8.116 8.15116 14.4935 8.15116 22.3333C8.15116 30.1731 14.5984 36.5506 22.524 36.5506C30.4496 36.5506 36.8968 30.1731 36.8968 22.3333C36.8968 14.4935 30.4496 8.116 22.524 8.116Z" fill="white"/>
</svg>
