<svg width="45" height="45" viewBox="0 0 45 45" fill="none" xmlns="http://www.w3.org/2000/svg">
<path d="M22.249 44.6045C34.4759 44.6045 44.3878 34.6714 44.3878 22.4182C44.3878 10.1651 34.4759 0.231934 22.249 0.231934C10.022 0.231934 0.110168 10.1651 0.110168 22.4182C0.110168 34.6714 10.022 44.6045 22.249 44.6045Z" fill="#FEA11C"/>
<path d="M26.6666 13.5C24.8335 13.5 23.3333 14.8066 23.3333 16.4033C23.3333 16.7293 23.3951 17.0446 23.5105 17.3377L17.8022 20.5676C17.1909 19.9768 16.3125 19.5967 15.3334 19.5967C13.5002 19.5967 12 20.9034 12 22.5C12 24.0966 13.5002 25.4033 15.3334 25.4033C16.3165 25.4033 17.2009 25.0274 17.8124 24.4324L23.5105 27.6623C23.3933 27.9578 23.3333 28.2679 23.3333 28.5967C23.3333 30.1934 24.8335 31.5 26.6666 31.5C28.4998 31.5 30 30.1934 30 28.5967C30 27.0001 28.4998 25.6934 26.6666 25.6934C25.6875 25.6934 24.8093 26.0736 24.1978 26.6643L18.4895 23.4344C18.6046 23.1411 18.6667 22.8258 18.6667 22.5C18.6667 22.1711 18.6067 21.8611 18.4895 21.5656L24.1876 18.3357C24.7991 18.9307 25.6836 19.3066 26.6666 19.3066C28.4998 19.3066 30 17.9999 30 16.4033C30 14.8066 28.4998 13.5 26.6666 13.5V13.5ZM26.6666 14.6612C27.779 14.6612 28.6668 15.4342 28.6668 16.4033C28.6668 17.3721 27.7793 18.1453 26.6666 18.1453C25.5543 18.1453 24.6665 17.3723 24.6665 16.4033C24.6665 15.4344 25.554 14.6612 26.6666 14.6612ZM15.3333 20.7581C16.4456 20.7581 17.3334 21.5311 17.3334 22.5002C17.3334 23.469 16.4459 24.2422 15.3333 24.2422C14.2209 24.2422 13.3331 23.4692 13.3331 22.5002C13.3331 21.5311 14.2206 20.7581 15.3333 20.7581ZM26.6666 26.855C27.779 26.855 28.6668 27.628 28.6668 28.597C28.6668 29.5659 27.7793 30.3391 26.6666 30.3391C25.5543 30.3391 24.6665 29.5661 24.6665 28.597C24.6665 27.6282 25.554 26.855 26.6666 26.855Z" fill="white"/>
<path d="M22.187 38.5218C13.2747 38.5218 6.0246 31.3348 6.0246 22.5C6.0246 13.6653 13.2747 6.47827 22.187 6.47827C31.0993 6.47827 38.3494 13.6653 38.3494 22.5C38.3494 31.3348 31.0993 38.5218 22.187 38.5218ZM22.187 8.48099C14.3886 8.48099 8.0449 14.7695 8.0449 22.5C8.0449 30.2305 14.3886 36.5191 22.187 36.5191C29.9853 36.5191 36.3291 30.2305 36.3291 22.5C36.3291 14.7695 29.9853 8.48099 22.187 8.48099Z" fill="white"/>
</svg>
